<svg width="486" height="361" viewBox="0 0 486 361" fill="none" xmlns="http://www.w3.org/2000/svg">
<rect x="1" y="1" width="448" height="323" rx="2" fill="white" stroke="#5294FF" stroke-width="2"/>
<rect x="1" y="1" width="448" height="323" rx="2" fill="white" stroke="#5294FF" stroke-width="2"/>
<rect x="1" y="1" width="448" height="14" rx="2" fill="#5294FF" stroke="#5294FF" stroke-width="2"/>
<path d="M66 98.4478V144.808L93.5013 172.284H138.594V196.209L164.408 222V176.573L135.883 148.073H91.4379V124.419L66 98.4478Z" fill="#5294FF"/>
<path d="M66 155.461L91.3476 180.786V220.134H66V155.461Z" fill="#5294FF"/>
<path d="M138.594 102.375H164.408V165.362L138.97 139.948L138.594 102.375Z" fill="#5294FF"/>
<path d="M174.514 126.676V220.134H199.018V151.339L174.514 126.676Z" fill="#5294FF"/>
<path d="M174.514 116.76V102.36H217.739C217.739 102.36 268.449 104.602 272.561 158.621C272.561 158.621 277.802 220.119 206.699 220.119V195.818C206.699 195.818 248.238 198.617 248.238 160.201C248.238 160.201 245.813 126.646 211.76 126.646H185.373L174.514 116.745V116.76Z" fill="#5294FF"/>
<path d="M364.418 102.375H288.45L282.094 161.255L308.481 137.33L309.415 126.676H341.962L364.418 102.375Z" fill="#5294FF"/>
<path d="M289.203 166.491L311.087 142.942H325.063C332.85 142.942 340.531 145.079 347.007 149.368C354.959 154.619 362.912 163.978 362.912 180.335C362.912 194.359 357.098 203.492 350.471 209.376C343.182 215.831 333.663 219.216 323.934 219.216H266.567L289.399 195.472H325.485C333.452 195.472 339.913 189.017 339.913 181.057C339.913 173.112 333.482 166.672 325.53 166.642L289.203 166.506V166.491Z" fill="#5294FF"/>
<path d="M354.839 86.6358C354.839 86.6358 362.61 80.5567 385.985 80C385.985 80 381.406 105.415 376.542 110.47C376.542 110.47 374.298 96.4465 374.388 90.0966C374.388 90.0966 356.706 89.1637 354.839 86.6358Z" fill="#5294FF"/>
<circle cx="417" cy="8" r="4" fill="white"/>
<circle cx="427" cy="8" r="4" fill="white"/>
<circle cx="437" cy="8" r="4" fill="white"/>
</svg>
